<?xml version="1.0" standalone="no"?>
<!DOCTYPE svg PUBLIC "-//W3C//DTD SVG 20010904//EN"
 "http://www.w3.org/TR/2001/REC-SVG-20010904/DTD/svg10.dtd">
<svg version="1.0" xmlns="http://www.w3.org/2000/svg"
 width="157.000000pt" height="157.000000pt" viewBox="0 0 157.000000 157.000000"
 preserveAspectRatio="xMidYMid meet">
<metadata>
Created by potrace 1.14, written by Peter Selinger 2001-2017
</metadata>
<g transform="translate(0.000000,157.000000) scale(0.100000,-0.100000)"
fill="#000000" stroke="none">
<path d="M658 1549 c-118 -18 -250 -74 -344 -145 -51 -38 -157 -144 -151 -151
2 -1 29 6 61 17 227 78 496 54 724 -65 104 -55 127 -69 202 -126 76 -57 90
-73 36 -39 -67 41 -232 118 -319 149 -164 58 -234 71 -367 71 -221 1 -356 -56
-436 -182 -48 -76 -77 -342 -49 -450 l7 -28 45 40 c95 83 197 111 388 106 96
-2 161 -10 248 -30 127 -29 199 -37 233 -25 85 30 151 14 174 -40 27 -66 -17
-141 -105 -183 l-40 -19 79 6 c127 9 190 37 291 128 71 64 150 91 195 67 15
-8 18 -5 23 23 6 41 1 211 -8 257 -28 147 -142 348 -242 427 -16 12 -41 33
-58 47 -43 38 -199 112 -274 131 -71 18 -239 26 -313 14z"/>
<path d="M284 675 c-104 -22 -198 -83 -223 -144 -11 -25 -9 -36 20 -92 103
-205 273 -347 495 -412 73 -21 320 -23 399 -2 71 18 187 72 247 113 104 72
205 191 257 302 79 170 20 206 -124 76 -67 -60 -127 -92 -211 -112 -125 -28
-306 -13 -438 37 -110 42 -102 52 42 55 169 2 233 18 284 69 27 26 30 61 8 75
-6 4 -47 0 -91 -9 -81 -15 -81 -15 -241 18 -180 37 -327 46 -424 26z"/>
</g>
</svg>
